<svg width="48" height="48" viewBox="0 0 48 48" fill="none" xmlns="http://www.w3.org/2000/svg">
<circle cx="24" cy="24" r="24" fill="#0000DE" fill-opacity="0.4"/>
<circle cx="24.0001" cy="24.0001" r="18.1622" fill="#0000DE"/>
<path fill-rule="evenodd" clip-rule="evenodd" d="M21.9542 16.3779H22.684C24.748 16.3779 25.7799 16.3779 26.4211 17.0191C27.0623 17.6603 27.0623 18.6923 27.0623 20.7563V26.7766H28.2091C29.0871 26.7766 29.7988 27.4884 29.7988 28.3664V28.4185C29.7988 28.7208 30.0439 28.9658 30.3461 28.9658C30.6484 28.9658 30.8934 28.7208 30.8934 28.4185V24.9523L30 24.6544C29.553 24.5055 29.2515 24.0872 29.2515 23.616V21.8509C29.2515 21.2464 29.7416 20.7563 30.3461 20.7563H30.8934V20.4808C30.8934 20.3458 30.8932 20.2994 30.8908 20.257C30.8665 19.8231 30.6711 19.4166 30.3475 19.1265C30.3159 19.0981 30.2798 19.069 30.1743 18.9846L29.2745 18.2648C29.0385 18.076 29.0002 17.7315 29.189 17.4955C29.3779 17.2595 29.7223 17.2212 29.9583 17.41L30.8699 18.1393C30.9592 18.2107 31.0208 18.26 31.0781 18.3114C31.6174 18.7949 31.9431 19.4724 31.9837 20.1956C31.988 20.2725 31.988 20.3514 31.988 20.4657V28.4185C31.988 29.3253 31.2529 30.0604 30.3461 30.0604C29.4393 30.0604 28.7042 29.3253 28.7042 28.4185V28.3664C28.7042 28.0929 28.4825 27.8712 28.2091 27.8712H27.0623V30.4252H27.8821C28.1844 30.4252 28.4294 30.6703 28.4294 30.9725C28.4294 31.2748 28.1844 31.5198 27.8821 31.5198H16.8461C16.5439 31.5198 16.2988 31.2748 16.2988 30.9725C16.2988 30.6703 16.5439 30.4252 16.8461 30.4252H17.5759V20.7563C17.5759 18.6923 17.5759 17.6603 18.2171 17.0191C18.8583 16.3779 19.8902 16.3779 21.9542 16.3779ZM20.6772 26.7766C20.3749 26.7766 20.1299 27.0216 20.1299 27.3239C20.1299 27.6261 20.3749 27.8712 20.6772 27.8712H24.3259C24.6281 27.8712 24.8732 27.6261 24.8732 27.3239C24.8732 27.0216 24.6281 26.7766 24.3259 26.7766H20.6772ZM23.5961 19.2968H21.4069C20.7189 19.2968 20.3749 19.2968 20.1612 19.5106C19.9475 19.7243 19.9475 20.0683 19.9475 20.7563C19.9475 21.4443 19.9475 21.7883 20.1612 22.002C20.3749 22.2158 20.7189 22.2158 21.4069 22.2158H23.5961C24.2841 22.2158 24.6281 22.2158 24.8419 22.002C25.0556 21.7883 25.0556 21.4443 25.0556 20.7563C25.0556 20.0683 25.0556 19.7243 24.8419 19.5106C24.6281 19.2968 24.2841 19.2968 23.5961 19.2968Z" fill="white"/>
</svg>
