<svg width="74" height="74" viewBox="0 0 74 74" fill="none" xmlns="http://www.w3.org/2000/svg">
<circle cx="37" cy="37" r="37" fill="#0000DE" fill-opacity="0.4"/>
<circle cx="37" cy="37" r="28" fill="#0000DE"/>
<path fill-rule="evenodd" clip-rule="evenodd" d="M33.8438 25.25H34.9688C38.1507 25.25 39.7417 25.25 40.7302 26.2385C41.7188 27.227 41.7188 28.818 41.7188 32V41.2813H43.4866C44.8402 41.2813 45.9375 42.3786 45.9375 43.7322V43.8125C45.9375 44.2785 46.3153 44.6563 46.7812 44.6563C47.2472 44.6563 47.625 44.2785 47.625 43.8125V38.4688L46.2476 38.0096C45.5585 37.7799 45.0938 37.1351 45.0938 36.4087V33.6875C45.0938 32.7555 45.8493 32 46.7812 32H47.625V31.5753C47.625 31.3671 47.6247 31.2956 47.621 31.2302C47.5834 30.5613 47.2822 29.9346 46.7834 29.4873C46.7346 29.4436 46.6789 29.3987 46.5164 29.2687L45.1292 28.1589C44.7653 27.8678 44.7063 27.3368 44.9974 26.9729C45.2885 26.6091 45.8195 26.5501 46.1833 26.8412L47.5887 27.9655C47.7264 28.0756 47.8213 28.1515 47.9098 28.2308C48.7412 28.9762 49.2432 30.0207 49.3059 31.1356C49.3125 31.2541 49.3125 31.3757 49.3125 31.552V43.8125C49.3125 45.2105 48.1792 46.3438 46.7812 46.3438C45.3833 46.3438 44.25 45.2105 44.25 43.8125V43.7322C44.25 43.3106 43.9082 42.9688 43.4866 42.9688H41.7188V46.9062H42.9826C43.4486 46.9062 43.8264 47.284 43.8264 47.75C43.8264 48.216 43.4486 48.5938 42.9826 48.5938H25.9688C25.5028 48.5938 25.125 48.216 25.125 47.75C25.125 47.284 25.5028 46.9062 25.9688 46.9062H27.0938V32C27.0938 28.818 27.0938 27.227 28.0823 26.2385C29.0708 25.25 30.6618 25.25 33.8438 25.25ZM31.875 41.2812C31.409 41.2812 31.0312 41.659 31.0312 42.125C31.0312 42.591 31.409 42.9688 31.875 42.9688H37.5C37.966 42.9688 38.3438 42.591 38.3438 42.125C38.3438 41.659 37.966 41.2812 37.5 41.2812H31.875ZM36.375 29.75H33C31.9393 29.75 31.409 29.75 31.0795 30.0795C30.75 30.409 30.75 30.9393 30.75 32C30.75 33.0607 30.75 33.591 31.0795 33.9205C31.409 34.25 31.9393 34.25 33 34.25H36.375C37.4357 34.25 37.966 34.25 38.2955 33.9205C38.625 33.591 38.625 33.0607 38.625 32C38.625 30.9393 38.625 30.409 38.2955 30.0795C37.966 29.75 37.4357 29.75 36.375 29.75Z" fill="white"/>
</svg>
